<svg id="visual" viewBox="0 0 960 540" width="960" height="540" xmlns="http://www.w3.org/2000/svg" xmlns:xlink="http://www.w3.org/1999/xlink" version="1.1"><g><g transform="translate(687 412)"><path d="M81.5 -28.8C93.8 11.4 83.8 56.5 55.9 76.8C27.9 97.1 -18.1 92.6 -53.1 68.3C-88.2 44 -112.3 -0.2 -101.7 -38.1C-91 -76 -45.5 -107.6 -5.4 -105.9C34.6 -104.1 69.2 -68.9 81.5 -28.8Z" stroke="#ECF4E8" fill="none" stroke-width="20"></path></g><g transform="translate(583 51)"><path d="M73.3 -23.1C82.9 5.7 70.2 42.5 45.7 59.6C21.1 76.7 -15.4 74.1 -40.3 55.9C-65.2 37.7 -78.4 4 -69.8 -23.5C-61.1 -51 -30.6 -72.3 0.6 -72.5C31.8 -72.7 63.7 -51.9 73.3 -23.1Z" stroke="#ECF4E8" fill="none" stroke-width="20"></path></g><g transform="translate(882 183)"><path d="M93.4 -26.4C106.8 11 93.7 61 61.3 84.7C28.8 108.4 -23.1 105.8 -58.8 80.1C-94.5 54.4 -114 5.5 -101.5 -30.6C-89 -66.8 -44.5 -90.3 -2.3 -89.5C40 -88.8 79.9 -63.9 93.4 -26.4Z" stroke="#ECF4E8" fill="none" stroke-width="20"></path></g><g transform="translate(149 509)"><path d="M96.4 -31.2C109 7.5 92.3 55.8 60.2 77.9C28.1 100 -19.3 96 -51.2 72.4C-83.1 48.8 -99.3 5.6 -88.2 -31.1C-77.1 -67.7 -38.5 -97.9 1.7 -98.5C41.9 -99 83.8 -69.9 96.4 -31.2Z" stroke="#ECF4E8" fill="none" stroke-width="20"></path></g><g transform="translate(196 146)"><path d="M42.5 -12.5C49.4 7.6 45.5 32.4 29.8 44.7C14.1 57 -13.4 56.7 -31.9 43.3C-50.4 30 -59.8 3.8 -53 -16.1C-46.2 -35.9 -23.1 -49.4 -2.7 -48.5C17.8 -47.6 35.5 -32.5 42.5 -12.5Z" stroke="#ECF4E8" fill="none" stroke-width="20"></path></g></g></svg>