<svg id="visual" viewBox="0 0 900 800" width="900" height="800" xmlns="http://www.w3.org/2000/svg" xmlns:xlink="http://www.w3.org/1999/xlink" version="1.1"><g><g transform="translate(283 488)"><path d="M104.4 -33.7C120.7 16.2 109.2 75.3 73.9 100.7C38.6 126.1 -20.5 117.8 -57.4 88.7C-94.4 59.6 -109.2 9.6 -96 -36.1C-82.7 -81.8 -41.3 -123.3 1.4 -123.7C44.1 -124.1 88.1 -83.6 104.4 -33.7Z" stroke="#124170" fill="none" stroke-width="20"></path></g><g transform="translate(716 328)"><path d="M78.9 -23.2C88.9 5.2 74.5 43.9 48.9 61C23.3 78.2 -13.5 73.7 -37.1 55.5C-60.8 37.3 -71.3 5.3 -62.9 -20.8C-54.5 -47 -27.3 -67.4 3.6 -68.6C34.4 -69.7 68.8 -51.6 78.9 -23.2Z" stroke="#124170" fill="none" stroke-width="20"></path></g><g transform="translate(595 654)"><path d="M67.3 -19.9C76.1 5.3 64.5 39.1 40.8 56.3C17.1 73.6 -18.7 74.3 -42.6 57.3C-66.5 40.3 -78.4 5.5 -69.3 -20.1C-60.2 -45.7 -30.1 -62 -0.4 -61.9C29.2 -61.8 58.5 -45.1 67.3 -19.9Z" stroke="#124170" fill="none" stroke-width="20"></path></g><g transform="translate(137 90)"><path d="M107.5 -33.7C122.5 11.3 106.4 67.7 68 96.2C29.6 124.7 -30.9 125.3 -71.5 96.3C-112.1 67.3 -132.8 8.7 -117.5 -36.6C-102.3 -81.9 -51.1 -113.9 -2.5 -113.1C46.2 -112.3 92.5 -78.7 107.5 -33.7Z" stroke="#124170" fill="none" stroke-width="20"></path></g><g transform="translate(28 731)"><path d="M116.2 -36.6C129.6 3.4 105 57 66.9 82.3C28.8 107.7 -22.6 104.9 -60.4 78.5C-98.1 52.2 -122.1 2.4 -109.7 -36.3C-97.4 -74.9 -48.7 -102.4 1.4 -102.8C51.4 -103.3 102.8 -76.7 116.2 -36.6Z" stroke="#124170" fill="none" stroke-width="20"></path></g><g transform="translate(543 19)"><path d="M64.2 -19C73.5 7.9 64.8 42.6 41.3 60.6C17.7 78.5 -20.6 79.9 -45.6 61.9C-70.5 44 -82 6.8 -72.2 -20.7C-62.3 -48.3 -31.2 -66.2 -1.9 -65.6C27.4 -65 54.8 -45.8 64.2 -19Z" stroke="#124170" fill="none" stroke-width="20"></path></g></g></svg>