<svg id="visual" viewBox="0 0 960 540" width="960" height="540" xmlns="http://www.w3.org/2000/svg" xmlns:xlink="http://www.w3.org/1999/xlink" version="1.1"><path d="M0 77L87 82L175 60L262 60L349 77L436 93L524 55L611 55L698 77L785 55L873 93L960 87L960 0L873 0L785 0L698 0L611 0L524 0L436 0L349 0L262 0L175 0L87 0L0 0Z" fill="#001220"></path><path d="M0 255L87 168L175 206L262 212L349 206L436 276L524 212L611 131L698 185L785 266L873 303L960 201L960 85L873 91L785 53L698 75L611 53L524 53L436 91L349 75L262 58L175 58L87 80L0 75Z" fill="#2d444d"></path><path d="M0 325L87 233L175 298L262 276L349 303L436 309L524 287L611 244L698 249L785 303L873 384L960 303L960 199L873 301L785 264L698 183L611 129L524 210L436 274L349 204L262 210L175 204L87 166L0 253Z" fill="#647c7c"></path><path d="M0 411L87 330L175 379L262 363L349 422L436 444L524 428L611 309L698 374L785 357L873 460L960 379L960 301L873 382L785 301L698 247L611 242L524 285L436 307L349 301L262 274L175 296L87 231L0 323Z" fill="#a5b7af"></path><path d="M0 541L87 541L175 541L262 541L349 541L436 541L524 541L611 541L698 541L785 541L873 541L960 541L960 377L873 458L785 355L698 372L611 307L524 426L436 442L349 420L262 361L175 377L87 328L0 409Z" fill="#ecf4e8"></path></svg>