<svg id="visual" viewBox="0 0 1080 1024" width="1080" height="1024" xmlns="http://www.w3.org/2000/svg" xmlns:xlink="http://www.w3.org/1999/xlink" version="1.1"><rect x="0" y="0" width="1080" height="1024" fill="#001220"></rect><defs><linearGradient id="grad1_0" x1="5.2%" y1="0%" x2="100%" y2="100%"><stop offset="28.90625%" stop-color="#001220" stop-opacity="1"></stop><stop offset="71.09375%" stop-color="#001220" stop-opacity="1"></stop></linearGradient></defs><defs><linearGradient id="grad2_0" x1="0%" y1="0%" x2="94.8%" y2="100%"><stop offset="28.90625%" stop-color="#001220" stop-opacity="1"></stop><stop offset="71.09375%" stop-color="#001220" stop-opacity="1"></stop></linearGradient></defs><g transform="translate(1080, 0)"><path d="M0 558.1C-44.9 511.2 -89.8 464.3 -147.4 453.7C-205 443 -275.2 468.7 -328 451.5C-380.9 434.3 -416.3 374.2 -437.7 318C-459 261.8 -466.4 209.6 -484.1 157.3C-501.8 105 -530 52.5 -558.1 0L0 0Z" fill="#93BFC7"></path></g><g transform="translate(0, 1024)"><path d="M0 -558.1C47.1 -516.8 94.1 -475.6 150.5 -463.2C206.8 -450.7 272.5 -467.2 326.8 -449.8C381.1 -432.5 424.1 -381.3 451.5 -328C478.9 -274.8 490.8 -219.4 506 -164.4C521.1 -109.4 539.6 -54.7 558.1 0L0 0Z" fill="#93BFC7"></path></g></svg>