<svg id="visual" viewBox="0 0 900 800" width="900" height="800" xmlns="http://www.w3.org/2000/svg" xmlns:xlink="http://www.w3.org/1999/xlink" version="1.1"><rect x="0" y="0" width="900" height="800" fill="#ECF4E8"></rect><defs><linearGradient id="grad1_0" x1="11.1%" y1="100%" x2="100%" y2="0%"><stop offset="27.5%" stop-color="#cbf3bb" stop-opacity="1"></stop><stop offset="72.5%" stop-color="#cbf3bb" stop-opacity="1"></stop></linearGradient></defs><defs><linearGradient id="grad1_1" x1="11.1%" y1="100%" x2="100%" y2="0%"><stop offset="27.5%" stop-color="#cbf3bb" stop-opacity="1"></stop><stop offset="72.5%" stop-color="#d4f3c6" stop-opacity="1"></stop></linearGradient></defs><defs><linearGradient id="grad1_2" x1="11.1%" y1="100%" x2="100%" y2="0%"><stop offset="27.5%" stop-color="#dcf4d1" stop-opacity="1"></stop><stop offset="72.5%" stop-color="#d4f3c6" stop-opacity="1"></stop></linearGradient></defs><defs><linearGradient id="grad1_3" x1="11.1%" y1="100%" x2="100%" y2="0%"><stop offset="27.5%" stop-color="#dcf4d1" stop-opacity="1"></stop><stop offset="72.5%" stop-color="#e4f4dd" stop-opacity="1"></stop></linearGradient></defs><defs><linearGradient id="grad1_4" x1="11.1%" y1="100%" x2="100%" y2="0%"><stop offset="27.5%" stop-color="#ecf4e8" stop-opacity="1"></stop><stop offset="72.5%" stop-color="#e4f4dd" stop-opacity="1"></stop></linearGradient></defs><defs><linearGradient id="grad2_0" x1="0%" y1="100%" x2="88.9%" y2="0%"><stop offset="27.5%" stop-color="#cbf3bb" stop-opacity="1"></stop><stop offset="72.5%" stop-color="#cbf3bb" stop-opacity="1"></stop></linearGradient></defs><defs><linearGradient id="grad2_1" x1="0%" y1="100%" x2="88.9%" y2="0%"><stop offset="27.5%" stop-color="#d4f3c6" stop-opacity="1"></stop><stop offset="72.5%" stop-color="#cbf3bb" stop-opacity="1"></stop></linearGradient></defs><defs><linearGradient id="grad2_2" x1="0%" y1="100%" x2="88.9%" y2="0%"><stop offset="27.5%" stop-color="#d4f3c6" stop-opacity="1"></stop><stop offset="72.5%" stop-color="#dcf4d1" stop-opacity="1"></stop></linearGradient></defs><defs><linearGradient id="grad2_3" x1="0%" y1="100%" x2="88.9%" y2="0%"><stop offset="27.5%" stop-color="#e4f4dd" stop-opacity="1"></stop><stop offset="72.5%" stop-color="#dcf4d1" stop-opacity="1"></stop></linearGradient></defs><defs><linearGradient id="grad2_4" x1="0%" y1="100%" x2="88.9%" y2="0%"><stop offset="27.5%" stop-color="#e4f4dd" stop-opacity="1"></stop><stop offset="72.5%" stop-color="#ecf4e8" stop-opacity="1"></stop></linearGradient></defs><g transform="translate(900, 800)"><path d="M-391.4 0C-370.7 -31.9 -350.1 -63.8 -329.4 -88.3C-308.7 -112.7 -287.9 -129.6 -280.6 -162C-273.2 -194.4 -279.3 -242.1 -258.1 -258.1C-236.9 -274.1 -188.6 -258.2 -160.5 -278C-132.4 -297.8 -124.7 -353.2 -101.3 -378C-77.9 -402.8 -39 -397.1 0 -391.4L0 0Z" fill="#e8f4e2"></path><path d="M-313.1 0C-296.6 -25.5 -280.1 -51.1 -263.5 -70.6C-247 -90.2 -230.4 -103.7 -224.5 -129.6C-218.6 -155.5 -223.4 -193.7 -206.5 -206.5C-189.5 -219.2 -150.9 -206.6 -128.4 -222.4C-105.9 -238.2 -99.7 -282.5 -81 -302.4C-62.3 -322.3 -31.2 -317.7 0 -313.1L0 0Z" fill="#e0f4d7"></path><path d="M-234.8 0C-222.4 -19.1 -210 -38.3 -197.6 -53C-185.2 -67.6 -172.8 -77.8 -168.4 -97.2C-163.9 -116.6 -167.6 -145.3 -154.9 -154.9C-142.2 -164.4 -113.1 -154.9 -96.3 -166.8C-79.5 -178.7 -74.8 -211.9 -60.8 -226.8C-46.8 -241.7 -23.4 -238.3 0 -234.8L0 0Z" fill="#d8f3cc"></path><path d="M-156.5 0C-148.3 -12.8 -140 -25.5 -131.8 -35.3C-123.5 -45.1 -115.2 -51.9 -112.2 -64.8C-109.3 -77.7 -111.7 -96.9 -103.2 -103.2C-94.8 -109.6 -75.4 -103.3 -64.2 -111.2C-53 -119.1 -49.9 -141.3 -40.5 -151.2C-31.2 -161.1 -15.6 -158.8 0 -156.5L0 0Z" fill="#cff3c1"></path><path d="M-78.3 0C-74.1 -6.4 -70 -12.8 -65.9 -17.7C-61.7 -22.5 -57.6 -25.9 -56.1 -32.4C-54.6 -38.9 -55.9 -48.4 -51.6 -51.6C-47.4 -54.8 -37.7 -51.6 -32.1 -55.6C-26.5 -59.6 -24.9 -70.6 -20.3 -75.6C-15.6 -80.6 -7.8 -79.4 0 -78.3L0 0Z" fill="#cbf3bb"></path></g><g transform="translate(0, 0)"><path d="M391.4 0C363 26.8 334.7 53.7 330.3 88.5C326 123.4 345.6 166.2 331.7 191.5C317.8 216.8 270.3 224.4 239.7 239.7C209.1 255 195.4 277.9 176 304.8C156.6 331.8 131.6 362.9 101.3 378C71 393.1 35.5 392.2 0 391.4L0 0Z" fill="#e8f4e2"></path><path d="M313.1 0C290.4 21.5 267.8 42.9 264.3 70.8C260.8 98.7 276.5 133 265.4 153.2C254.2 173.4 216.2 179.5 191.8 191.8C167.3 204 156.3 222.3 140.8 243.9C125.3 265.5 105.3 290.3 81 302.4C56.8 314.5 28.4 313.8 0 313.1L0 0Z" fill="#e0f4d7"></path><path d="M234.8 0C217.8 16.1 200.8 32.2 198.2 53.1C195.6 74 207.4 99.7 199 114.9C190.7 130.1 162.2 134.7 143.8 143.8C125.5 153 117.2 166.7 105.6 182.9C94 199.1 78.9 217.7 60.8 226.8C42.6 235.9 21.3 235.3 0 234.8L0 0Z" fill="#d8f3cc"></path><path d="M156.5 0C145.2 10.7 133.9 21.5 132.1 35.4C130.4 49.3 138.2 66.5 132.7 76.6C127.1 86.7 108.1 89.8 95.9 95.9C83.6 102 78.2 111.1 70.4 121.9C62.6 132.7 52.6 145.2 40.5 151.2C28.4 157.2 14.2 156.9 0 156.5L0 0Z" fill="#cff3c1"></path><path d="M78.3 0C72.6 5.4 66.9 10.7 66.1 17.7C65.2 24.7 69.1 33.2 66.3 38.3C63.6 43.4 54.1 44.9 47.9 47.9C41.8 51 39.1 55.6 35.2 61C31.3 66.4 26.3 72.6 20.3 75.6C14.2 78.6 7.1 78.4 0 78.3L0 0Z" fill="#cbf3bb"></path></g></svg>