<svg id="visual" viewBox="0 0 960 540" width="960" height="540" xmlns="http://www.w3.org/2000/svg" xmlns:xlink="http://www.w3.org/1999/xlink" version="1.1"><rect x="0" y="0" width="960" height="540" fill="#001220"></rect><defs><linearGradient id="grad1_0" x1="43.8%" y1="100%" x2="100%" y2="0%"><stop offset="14.444444444444446%" stop-color="#001220" stop-opacity="1"></stop><stop offset="85.55555555555554%" stop-color="#001220" stop-opacity="1"></stop></linearGradient></defs><defs><linearGradient id="grad2_0" x1="0%" y1="100%" x2="56.3%" y2="0%"><stop offset="14.444444444444446%" stop-color="#001220" stop-opacity="1"></stop><stop offset="85.55555555555554%" stop-color="#001220" stop-opacity="1"></stop></linearGradient></defs><g transform="translate(960, 540)"><path d="M-243 0C-223.3 -14.9 -203.6 -29.9 -194 -44.3C-184.4 -58.7 -184.8 -72.5 -182 -87.6C-179.2 -102.8 -173.3 -119.2 -161.8 -129.1C-150.4 -138.9 -133.5 -142.1 -122.8 -154C-112.2 -165.9 -107.8 -186.5 -97.6 -202.7C-87.4 -219 -71.3 -230.9 -54.1 -236.9C-36.8 -242.9 -18.4 -243 0 -243L0 0Z" fill="#ECF4E8"></path></g><g transform="translate(0, 0)"><path d="M243 0C238.1 17.3 233.2 34.6 230.1 52.5C227 70.4 225.8 89 218.9 105.4C212.1 121.9 199.5 136.2 186.1 148.4C172.6 160.6 158.2 170.8 142.8 179C127.3 187.3 110.8 193.6 94.6 196.4C78.4 199.2 62.7 198.5 47 205.7C31.3 212.9 15.6 227.9 0 243L0 0Z" fill="#ECF4E8"></path></g></svg>