<svg id="visual" viewBox="0 0 960 540" width="960" height="540" xmlns="http://www.w3.org/2000/svg" xmlns:xlink="http://www.w3.org/1999/xlink" version="1.1"><g><g transform="translate(276 348)"><path d="M99.5 -31.3C113 9.1 96.9 60.2 64.4 82.4C31.8 104.6 -17.2 97.8 -50.8 72.8C-84.3 47.7 -102.5 4.3 -91.4 -32.8C-80.4 -69.9 -40.2 -100.6 1.4 -101.1C43 -101.6 86.1 -71.8 99.5 -31.3Z" stroke="#ECF4E8" fill="none" stroke-width="20"></path></g><g transform="translate(530 43)"><path d="M92.7 -30.8C103.1 1.9 82.8 43.9 50.2 67.1C17.7 90.2 -27.1 94.6 -54.3 74.8C-81.5 55 -91.1 11.2 -79.1 -23.7C-67.2 -58.5 -33.6 -84.3 3.8 -85.5C41.2 -86.7 82.3 -63.4 92.7 -30.8Z" stroke="#ECF4E8" fill="none" stroke-width="20"></path></g><g transform="translate(809 295)"><path d="M48.4 -15C55.1 4.7 47.5 29.8 29.5 43.6C11.5 57.3 -16.8 59.7 -34.7 46.9C-52.6 34.1 -60.1 6.1 -52.6 -14.8C-45 -35.7 -22.5 -49.5 -0.8 -49.2C20.9 -48.9 41.8 -34.6 48.4 -15Z" stroke="#ECF4E8" fill="none" stroke-width="20"></path></g><g transform="translate(605 529)"><path d="M89.9 -31.2C101 4.8 83.7 48.1 52 70.9C20.3 93.8 -25.7 96.3 -52.6 76C-79.4 55.6 -87 12.4 -75.1 -24.8C-63.1 -62.1 -31.6 -93.5 3.9 -94.8C39.4 -96.1 78.9 -67.2 89.9 -31.2Z" stroke="#ECF4E8" fill="none" stroke-width="20"></path></g><g transform="translate(2 14)"><path d="M49.6 -18.4C55.6 2.6 46 26.4 27.6 40.3C9.1 54.3 -18.2 58.4 -34 46.9C-49.9 35.4 -54.3 8.1 -46.7 -14.9C-39.2 -38 -19.6 -56.8 1.1 -57.2C21.8 -57.5 43.5 -39.4 49.6 -18.4Z" stroke="#ECF4E8" fill="none" stroke-width="20"></path></g><g transform="translate(9 537)"><path d="M76.5 -27.3C87.1 7.8 75.4 47.7 47.2 69.1C19.1 90.6 -25.5 93.5 -53.2 73.3C-80.9 53.2 -91.7 9.9 -80 -26.6C-68.3 -63.2 -34.2 -93.1 -0.6 -92.9C32.9 -92.7 65.9 -62.4 76.5 -27.3Z" stroke="#ECF4E8" fill="none" stroke-width="20"></path></g><g transform="translate(934 6)"><path d="M68.4 -21C79.2 11.1 72.1 50.2 47.8 68.4C23.6 86.7 -17.7 84 -44.9 63.7C-72.1 43.5 -85.2 5.8 -75.4 -24.9C-65.5 -55.7 -32.8 -79.4 -2 -78.8C28.8 -78.1 57.6 -53.1 68.4 -21Z" stroke="#ECF4E8" fill="none" stroke-width="20"></path></g></g></svg>