<svg id="visual" viewBox="0 0 1920 1024" width="1920" height="1024" xmlns="http://www.w3.org/2000/svg" xmlns:xlink="http://www.w3.org/1999/xlink" version="1.1"><rect x="0" y="0" width="1920" height="1024" fill="#001220"></rect><defs><linearGradient id="grad1_0" x1="46.7%" y1="0%" x2="100%" y2="100%"><stop offset="12.5%" stop-color="#001220" stop-opacity="1"></stop><stop offset="87.5%" stop-color="#001220" stop-opacity="1"></stop></linearGradient></defs><defs><linearGradient id="grad2_0" x1="0%" y1="0%" x2="53.3%" y2="100%"><stop offset="12.5%" stop-color="#001220" stop-opacity="1"></stop><stop offset="87.5%" stop-color="#001220" stop-opacity="1"></stop></linearGradient></defs><g transform="translate(1920, 0)"><path d="M0 768C-80.4 761.4 -160.7 754.9 -237 729.5C-313.3 704.1 -385.6 659.8 -438.5 603.5C-491.4 547.2 -525 478.9 -576 418.5C-627 358.1 -695.5 305.7 -730.4 237.3C-765.3 168.9 -766.7 84.5 -768 0L0 0Z" fill="#93BFC7"></path></g><g transform="translate(0, 1024)"><path d="M0 -768C57.7 -685.9 115.4 -603.8 190 -584.9C264.7 -566 356.3 -610.2 435.5 -599.5C514.8 -588.8 581.7 -523.2 621.3 -451.4C661 -379.6 673.4 -301.6 693.3 -225.3C713.2 -149 740.6 -74.5 768 0L0 0Z" fill="#93BFC7"></path></g></svg>