<svg id="visual" viewBox="0 0 960 540" width="960" height="540" xmlns="http://www.w3.org/2000/svg" xmlns:xlink="http://www.w3.org/1999/xlink" version="1.1"><rect x="0" y="0" width="960" height="540" fill="#001220"></rect><defs><linearGradient id="grad1_0" x1="43.8%" y1="0%" x2="100%" y2="100%"><stop offset="14.444444444444446%" stop-color="#001220" stop-opacity="1"></stop><stop offset="85.55555555555554%" stop-color="#001220" stop-opacity="1"></stop></linearGradient></defs><defs><linearGradient id="grad2_0" x1="0%" y1="0%" x2="56.3%" y2="100%"><stop offset="14.444444444444446%" stop-color="#001220" stop-opacity="1"></stop><stop offset="85.55555555555554%" stop-color="#001220" stop-opacity="1"></stop></linearGradient></defs><g transform="translate(960, 0)"><path d="M0 405C-34.3 371.6 -68.7 338.3 -103.5 318.6C-138.4 299 -173.8 293 -199.3 274.3C-224.8 255.5 -240.4 223.8 -274.3 199.3C-308.2 174.7 -360.3 157.2 -385.2 125.2C-410 93.1 -407.5 46.6 -405 0L0 0Z" fill="#93BFC7"></path></g><g transform="translate(0, 540)"><path d="M0 -405C41.8 -395.4 83.6 -385.9 119.6 -368.1C155.6 -350.2 185.7 -324.2 219.2 -301.8C252.8 -279.4 289.7 -260.6 319.6 -232.2C349.4 -203.7 372.1 -165.5 385.2 -125.2C398.2 -84.8 401.6 -42.4 405 0L0 0Z" fill="#93BFC7"></path></g></svg>