<svg id="visual" viewBox="0 0 900 800" width="900" height="800" xmlns="http://www.w3.org/2000/svg" xmlns:xlink="http://www.w3.org/1999/xlink" version="1.1"><g><g transform="translate(773 613)"><path d="M106.7 -32C122 12.4 106.9 69.4 67.8 99.2C28.7 129 -34.4 131.6 -73.2 102.9C-112.1 74.2 -126.6 14.2 -110.4 -31.6C-94.1 -77.3 -47.1 -108.7 -0.7 -108.5C45.7 -108.3 91.4 -76.4 106.7 -32Z" stroke="#FFB76C" fill="none" stroke-width="20"></path></g><g transform="translate(146 37)"><path d="M79 -25.6C89.1 5.6 75 44.7 46.9 65.3C18.8 86 -23.3 88 -51.9 68.1C-80.4 48.1 -95.4 6.1 -84.5 -26.1C-73.6 -58.4 -36.8 -81 -1.2 -80.7C34.4 -80.3 68.8 -56.9 79 -25.6Z" stroke="#FFB76C" fill="none" stroke-width="20"></path></g><g transform="translate(429 322)"><path d="M108.8 -32.1C124.6 13.3 109.7 71.9 72.9 98C36.2 124.2 -22.5 117.9 -60.4 89C-98.4 60 -115.6 8.4 -102.1 -33.9C-88.6 -76.1 -44.3 -109.1 1.1 -109.4C46.5 -109.8 93 -77.6 108.8 -32.1Z" stroke="#FFB76C" fill="none" stroke-width="20"></path></g><g transform="translate(331 655)"><path d="M60.7 -22.9C67.7 1.7 54.7 29.6 33.5 44.7C12.2 59.8 -17.3 62.1 -37.2 48.4C-57.1 34.6 -67.4 4.7 -59.6 -21.1C-51.7 -46.9 -25.9 -68.6 0.5 -68.8C26.9 -68.9 53.8 -47.6 60.7 -22.9Z" stroke="#FFB76C" fill="none" stroke-width="20"></path></g><g transform="translate(805 39)"><path d="M90.8 -31.8C102.7 7.3 87.3 53.1 56.2 75.1C25.1 97.2 -21.7 95.7 -53.4 72.8C-85.2 49.9 -102 5.6 -90.6 -32.7C-79.2 -71 -39.6 -103.4 -0.1 -103.4C39.4 -103.4 78.8 -70.9 90.8 -31.8Z" stroke="#FFB76C" fill="none" stroke-width="20"></path></g><g transform="translate(9 422)"><path d="M62.9 -21.4C71.3 5.5 60.9 37.5 37 56C13.2 74.5 -24.1 79.5 -49.6 62.4C-75 45.3 -88.5 6.1 -78.3 -23.3C-68.1 -52.7 -34 -72.3 -3.4 -71.2C27.2 -70.1 54.5 -48.3 62.9 -21.4Z" stroke="#FFB76C" fill="none" stroke-width="20"></path></g></g></svg>