<svg id="visual" viewBox="0 0 900 800" width="900" height="800" xmlns="http://www.w3.org/2000/svg" xmlns:xlink="http://www.w3.org/1999/xlink" version="1.1"><path d="M0 153L13.7 141C27.3 129 54.7 105 82 101C109.3 97 136.7 113 163.8 117C191 121 218 113 245.2 105C272.3 97 299.7 89 327 97C354.3 105 381.7 129 409 127.7C436.3 126.3 463.7 99.7 491 90.3C518.3 81 545.7 89 573 87.7C600.3 86.3 627.7 75.7 654.8 69C682 62.3 709 59.7 736.2 71.7C763.3 83.7 790.7 110.3 818 113C845.3 115.7 872.7 94.3 886.3 83.7L900 73L900 0L886.3 0C872.7 0 845.3 0 818 0C790.7 0 763.3 0 736.2 0C709 0 682 0 654.8 0C627.7 0 600.3 0 573 0C545.7 0 518.3 0 491 0C463.7 0 436.3 0 409 0C381.7 0 354.3 0 327 0C299.7 0 272.3 0 245.2 0C218 0 191 0 163.8 0C136.7 0 109.3 0 82 0C54.7 0 27.3 0 13.7 0L0 0Z" fill="#abe7b2"></path><path d="M0 249L13.7 237C27.3 225 54.7 201 82 190.3C109.3 179.7 136.7 182.3 163.8 178.3C191 174.3 218 163.7 245.2 163.7C272.3 163.7 299.7 174.3 327 199.7C354.3 225 381.7 265 409 259.7C436.3 254.3 463.7 203.7 491 181C518.3 158.3 545.7 163.7 573 157C600.3 150.3 627.7 131.7 654.8 129C682 126.3 709 139.7 736.2 151.7C763.3 163.7 790.7 174.3 818 182.3C845.3 190.3 872.7 195.7 886.3 198.3L900 201L900 71L886.3 81.7C872.7 92.3 845.3 113.7 818 111C790.7 108.3 763.3 81.7 736.2 69.7C709 57.7 682 60.3 654.8 67C627.7 73.7 600.3 84.3 573 85.7C545.7 87 518.3 79 491 88.3C463.7 97.7 436.3 124.3 409 125.7C381.7 127 354.3 103 327 95C299.7 87 272.3 95 245.2 103C218 111 191 119 163.8 115C136.7 111 109.3 95 82 99C54.7 103 27.3 127 13.7 139L0 151Z" fill="#bfefb7"></path><path d="M0 481L13.7 473C27.3 465 54.7 449 82 415.7C109.3 382.3 136.7 331.7 163.8 327.7C191 323.7 218 366.3 245.2 395.7C272.3 425 299.7 441 327 459.7C354.3 478.3 381.7 499.7 409 473C436.3 446.3 463.7 371.7 491 369C518.3 366.3 545.7 435.7 573 431.7C600.3 427.7 627.7 350.3 654.8 319.7C682 289 709 305 736.2 349C763.3 393 790.7 465 818 493C845.3 521 872.7 505 886.3 497L900 489L900 199L886.3 196.3C872.7 193.7 845.3 188.3 818 180.3C790.7 172.3 763.3 161.7 736.2 149.7C709 137.7 682 124.3 654.8 127C627.7 129.7 600.3 148.3 573 155C545.7 161.7 518.3 156.3 491 179C463.7 201.7 436.3 252.3 409 257.7C381.7 263 354.3 223 327 197.7C299.7 172.3 272.3 161.7 245.2 161.7C218 161.7 191 172.3 163.8 176.3C136.7 180.3 109.3 177.7 82 188.3C54.7 199 27.3 223 13.7 235L0 247Z" fill="#cbf3bb"></path><path d="M0 641L13.7 649C27.3 657 54.7 673 82 666.3C109.3 659.7 136.7 630.3 163.8 618.3C191 606.3 218 611.7 245.2 634.3C272.3 657 299.7 697 327 715.7C354.3 734.3 381.7 731.7 409 703.7C436.3 675.7 463.7 622.3 491 601C518.3 579.7 545.7 590.3 573 613C600.3 635.7 627.7 670.3 654.8 691.7C682 713 709 721 736.2 717C763.3 713 790.7 697 818 687.7C845.3 678.3 872.7 675.7 886.3 674.3L900 673L900 487L886.3 495C872.7 503 845.3 519 818 491C790.7 463 763.3 391 736.2 347C709 303 682 287 654.8 317.7C627.7 348.3 600.3 425.7 573 429.7C545.7 433.7 518.3 364.3 491 367C463.7 369.7 436.3 444.3 409 471C381.7 497.7 354.3 476.3 327 457.7C299.7 439 272.3 423 245.2 393.7C218 364.3 191 321.7 163.8 325.7C136.7 329.7 109.3 380.3 82 413.7C54.7 447 27.3 463 13.7 471L0 479Z" fill="#bfefb7"></path><path d="M0 801L13.7 801C27.3 801 54.7 801 82 801C109.3 801 136.7 801 163.8 801C191 801 218 801 245.2 801C272.3 801 299.7 801 327 801C354.3 801 381.7 801 409 801C436.3 801 463.7 801 491 801C518.3 801 545.7 801 573 801C600.3 801 627.7 801 654.8 801C682 801 709 801 736.2 801C763.3 801 790.7 801 818 801C845.3 801 872.7 801 886.3 801L900 801L900 671L886.3 672.3C872.7 673.7 845.3 676.3 818 685.7C790.7 695 763.3 711 736.2 715C709 719 682 711 654.8 689.7C627.7 668.3 600.3 633.7 573 611C545.7 588.3 518.3 577.7 491 599C463.7 620.3 436.3 673.7 409 701.7C381.7 729.7 354.3 732.3 327 713.7C299.7 695 272.3 655 245.2 632.3C218 609.7 191 604.3 163.8 616.3C136.7 628.3 109.3 657.7 82 664.3C54.7 671 27.3 655 13.7 647L0 639Z" fill="#abe7b2"></path></svg>